<svg width="22" height="25" viewBox="0 0 22 25" fill="none" xmlns="http://www.w3.org/2000/svg">
<g id="On the way">
<g id="Group 41">
<path id="Vector" d="M10.3119 0C7.82548 0 5.44094 0.987739 3.68307 2.74572C1.92487 4.50391 0.937134 6.88846 0.937134 9.37511C0.937134 14.375 9.48704 23.7498 9.84971 24.1751C9.96899 24.3038 10.1368 24.3762 10.3122 24.3752C10.4875 24.3762 10.6554 24.3038 10.7746 24.1751L11.5621 23.2813V23.7501C11.5621 24.0816 11.6939 24.3996 11.9283 24.634C12.1627 24.8684 12.4805 25 12.8122 25H20.3121C20.6436 25 20.9615 24.8684 21.1958 24.634C21.4304 24.3996 21.562 24.0816 21.562 23.7501V16.2502C21.562 15.9187 21.4304 15.6006 21.1958 15.3663C20.9615 15.1319 20.6436 15.0003 20.3121 15.0003H17.6683C19.0057 12.6877 19.6871 10.8004 19.6871 9.37532C19.6871 7.72968 19.2539 6.11297 18.4311 4.68787C17.6083 3.26262 16.4247 2.07924 14.9996 1.2564C13.5745 0.433549 11.9578 0.000428535 10.3122 0.000428535L10.3119 0ZM20.312 23.7496H12.8121V16.2496H14.6871V18.7497C14.6877 18.9663 14.8005 19.1672 14.985 19.2804C15.1696 19.3938 15.3998 19.4034 15.5932 19.3059L16.5618 18.8246L17.5305 19.3059H17.5307C17.6178 19.3505 17.714 19.3741 17.812 19.3745C17.9289 19.3749 18.0438 19.3425 18.1432 19.2808C18.3263 19.1663 18.4374 18.9656 18.437 18.7497V16.2496H20.312L20.312 23.7496ZM17.1871 16.2496V17.7371L16.8745 17.5684C16.6976 17.4793 16.4888 17.4793 16.312 17.5684L15.9681 17.7371V16.2496H17.1871ZM15.3121 14.9997H12.8121C12.4804 14.9997 12.1625 15.1313 11.9282 15.3657C11.6938 15.6001 11.5619 15.9181 11.5619 16.2496V21.3495C11.0557 21.9746 10.6182 22.4682 10.312 22.8121C8.5308 20.7808 2.18695 13.2936 2.18695 9.37489C2.18695 6.472 3.73568 3.79014 6.24954 2.33837C8.76341 0.886597 11.8606 0.886919 14.3741 2.33837C16.8876 3.78981 18.4367 6.47189 18.4367 9.37489C18.4367 10.6811 17.6618 12.6249 16.2116 14.9998L15.3121 14.9997Z" fill="#817AF3" fill-opacity="0.6"/>
<path id="Vector_2" d="M10.3119 4.99976C9.15157 4.99976 8.0389 5.46076 7.21841 6.28106C6.39792 7.10155 5.93689 8.21443 5.93689 9.37478C5.93689 10.5349 6.39789 11.6478 7.21841 12.4683C8.0389 13.2888 9.15157 13.7496 10.3119 13.7496C11.4723 13.7496 12.5849 13.2888 13.4054 12.4683C14.2259 11.6478 14.6869 10.5349 14.6869 9.37478C14.6869 8.21443 14.2259 7.10155 13.4054 6.28106C12.5849 5.46079 11.4723 4.99976 10.3119 4.99976V4.99976ZM10.3119 12.4997C9.48301 12.4997 8.68823 12.1705 8.10233 11.5844C7.51621 10.9984 7.18702 10.2035 7.18702 9.37478C7.18702 8.54588 7.51618 7.7511 8.10233 7.16498C8.68829 6.57902 9.48301 6.24967 10.3119 6.24967C11.1408 6.24967 11.9356 6.57904 12.5215 7.16498C13.1076 7.7511 13.4368 8.54588 13.4368 9.37478C13.4368 10.2035 13.1076 10.9985 12.5215 11.5844C11.9355 12.1705 11.1408 12.4997 10.3119 12.4997Z" fill="#817AF3" fill-opacity="0.6"/>
</g>
</g>
</svg>
