<svg width="21" height="25" viewBox="0 0 21 25" fill="none" xmlns="http://www.w3.org/2000/svg">
<g id="Purchase bag">
<path id="Vector" d="M19.2579 5.47911C19.2217 5.15261 18.9676 4.89851 18.6411 4.89851H15.6295C15.6295 2.21341 13.4161 0 10.731 0C8.04579 0 5.83245 2.17719 5.83245 4.89851H2.82085C2.49435 4.89851 2.24024 5.15262 2.20405 5.47911L0.752808 21.6619V21.7345C0.752808 23.5488 2.42201 25 4.45387 25H17.0082C19.0401 25 20.7093 23.5488 20.7093 21.7345V21.6619L19.2579 5.47911ZM10.7311 1.27007C12.7268 1.27007 14.3595 2.9028 14.3595 4.8985H7.10262C7.10262 2.90306 8.73535 1.27007 10.7311 1.27007V1.27007ZM17.0082 23.7663H4.45381C3.11135 23.7663 2.02276 22.8592 1.9866 21.7706L3.36547 6.16839H5.83267V8.34557C5.83267 8.67207 6.12298 8.96237 6.44947 8.96237C6.77597 8.96237 7.06627 8.67207 7.06627 8.34557V6.16839H14.3594V8.34557C14.3594 8.67207 14.6497 8.96237 14.9762 8.96237C15.3027 8.96237 15.593 8.67207 15.593 8.34557V6.16839H18.0602L19.4391 21.7706C19.4393 22.8592 18.351 23.7663 17.0083 23.7663H17.0082Z" fill="#009ED8"/>
</g>
</svg>
