<?xml version="1.0" encoding="utf-8"?>
<!-- Generator: Adobe Illustrator 27.1.1, SVG Export Plug-In . SVG Version: 6.00 Build 0)  -->
<svg version="1.1" id="Layer_5" xmlns="http://www.w3.org/2000/svg" xmlns:xlink="http://www.w3.org/1999/xlink" x="0px" y="0px"
	 viewBox="0 0 6244.3 4422.8" style="enable-background:new 0 0 6244.3 4422.8;" xml:space="preserve">
<style type="text/css">
	.st0{fill:#049ED8;}
	.st1{fill:#23B46A;}
</style>
<path class="st0" d="M5067.4,1149.9h-502.7c-8.4-10.5-16.9-21.1-25.7-31.4c-212.8-254.4-497.6-446.4-823-545.2
	c-60.7-18.4-122.7-33.5-185.9-45.3c-11.8-2.1-23.5-4.3-35.3-6.2c-19.8-3.2-39.8-6.2-59.9-8.7c-40.3-5.2-81-8.9-122-11.2
	c-21.2-1.2-42.5-2-63.9-2.5c-11.8-0.2-23.7-0.4-35.5-0.4c-44.1,0-87.8,1.6-131.1,5c-58.2,4.3-115.6,11.6-172.2,21.6
	c-6.1,1.1-12.3,2.1-18.4,3.4c-56.9,10.7-112.9,24.3-167.7,40.3c-344.3,101.5-643.8,307.2-862,580.7h-502.7
	c29.4-50.7,61-100.1,94.6-148.2c36.4-52.3,75.3-102.9,116.5-152c40.1-47.8,82.4-94,127-138.4c196.8-196.8,426-351.3,681.3-459.2
	c115.4-48.9,233.9-87.1,354.7-114.7c61.7-14.1,124-25.5,186.8-34.1c96.5-13.2,194.3-19.8,293.1-19.8c11.8,0,23.7,0,35.5,0.4
	c23.4,0.4,46.6,1.1,69.8,2.3c38.9,1.8,77.8,4.8,116.3,8.7c30.9,3.2,61.7,7,92.4,11.6c178.8,26.2,352.9,74.9,520.6,145.9
	c247.4,104.7,470.4,253,662.9,441.2c6.1,5.9,12.3,12,18.4,18c42.5,42.5,83.1,86.5,121.5,132c9.5,11.1,18.7,22.5,28,33.7
	c46.2,56.7,89.2,115.8,129.2,176.8l0,0C5028.7,1085.3,5048.5,1117.3,5067.4,1149.9L5067.4,1149.9z"/>
<path class="st0" d="M4526.3,3350.6c-20.5,23.9-41.7,47.3-63.5,70.1l0,0c-46.2,48.3-95.1,94-146.6,136.7
	c-49.2,40.9-100.8,79-154.3,114.4c-73,48-149.9,90.8-230.1,127.4c-13.4,6.1-26.8,12.1-40.3,17.8c-46,19.6-93.1,37.5-141.1,53
	c-30.3,10-60.8,18.9-91.9,27.1c-15.3,4.1-30.7,8-46.2,11.6c-58,13.7-117,24.4-177.1,32.1c-12.7,1.6-25.5,3.2-38.2,4.5
	c-16.6,1.8-33.2,3.2-50,4.6c-32.3,2.5-64.9,4.1-97.8,4.6c-11.8,0.2-23.7,0.4-35.5,0.4c-34.6,0-69-1.1-103.3-3
	c-67.8-3.9-134.5-12-200-23.5c-63.2-11.2-125.2-25.9-185.9-43.7c-304.9-89.7-574.6-261.4-783.9-489.3
	c-13.6-14.6-26.8-29.6-39.8-44.8h-513.3c49.8,80.8,104.9,158.2,165.2,231.9c39.6,48.5,81.5,95.4,125.6,140.6
	c6.4,6.6,13,13.2,19.4,19.8c196.8,196.8,426,351.3,681.3,459.2c112.4,47.5,227.6,85.1,345.4,112.6c61.4,14.5,123.5,26,185.9,34.8
	c99.9,14.1,201.1,21.2,303.3,21.2c49.8,0,99.2-1.6,148.4-5c24.4-1.6,48.9-3.7,73.1-6.2c211.2-21.6,416.6-74.2,613-157.3
	c41.2-17.5,81.9-36.2,121.8-56c51.4-25.5,101.5-53.2,150.4-82.6c38.5-23.2,76.4-47.6,113.3-73.3l0,0c15-10.5,30-21.1,44.8-31.9
	c88.7-64.9,172.5-136.7,251-215.3c16.1-16.1,31.9-32.3,47.5-48.9c48.2-51.2,93.5-104.5,136.1-159.7c45.5-59,88-120.2,126.8-183.8
	L4526.3,3350.6L4526.3,3350.6z"/>
<path class="st1" d="M3249,1336v1828.8h-338.8V1886.5l-185.9,232.3l-68.9,86l-119.2,148.8l-233.7,292l-233.7-292l-119.2-148.8
	l-388.6-485.2c-23,74.7-41,151.8-53.7,230.5c-14.5,90.3-22.1,182.7-22.1,277.1c0,164.7,23,324.1,66.2,475.1
	c20.2,70.6,44.8,139.3,73.3,206c38.5,89.7,84.4,175.5,136.8,256.5h-476.5c-13.2-27.1-25.9-54.6-38-82.4c-3-6.8-5.9-13.7-8.9-20.5
	c-111.9-264.6-168.6-545.4-168.6-834.5c0-235.1,37.5-464.7,111.7-684.5c17.1-50.5,36-100.6,57.1-150.2c7-16.6,14.1-33,21.6-49.2
	c1.1-2.5,2.1-4.8,3.4-7.3h458.3l6.2,7.8l455.5,568.9l119.2,148.8l119.2-148.8l302.6-378l159.3-198.9L3249,1336L3249,1336z"/>
<polyline class="st1" points="4056.1,2913.4 4035.2,2862 3934.9,2613.7 3475.8,1477.6 3434.9,1376.7 3418.5,1336 3823.8,1336 
	4137.6,2112.4 4237.9,2360.5 4258.6,2411.9 4358.8,2660.2 4459.3,2411.9 4805.7,1554.5 4894,1336 5305.4,1336 5234.6,1511 
	4941.5,2236.5 4941.5,2236.5 4665,2921.1 4566.5,3164.7 4157.6,3164.7 "/>
</svg>
